<?xml version="1.0" encoding="utf-8"?>
  <svg
    width="64"
    height="22"
    viewBox="0 0 64 22"
    fill="none"
    xmlns="http://www.w3.org/2000/svg"
  >
    <path
      d="M12.7822 3.35774L12.8814 3.246L12.78 3.13622C11.6144 1.87429 9.66296 1.26499 6.97473 1.26499C5.2462 1.26499 3.79919 1.69091 2.64537 2.55389C1.49546 3.40795 0.931887 4.71972 0.931887 6.45479C0.931887 7.75055 1.35566 8.80982 2.21094 9.61616C3.04845 10.4058 4.06078 10.9906 5.24474 11.3722L5.24472 11.3722L5.24825 11.3733C6.43217 11.7258 7.60532 12.0783 8.7677 12.4309L8.76769 12.4309L8.77122 12.4319C9.93632 12.7571 10.9157 13.2542 11.7133 13.9203C12.4925 14.5709 12.8813 15.4164 12.8813 16.4713C12.8813 17.4631 12.3803 18.344 11.3337 19.1153L11.3324 19.1163C10.3183 19.8789 8.78843 20.2733 6.71636 20.2733C4.45517 20.2733 2.81409 19.7597 1.75914 18.7645L1.63545 18.6478L1.52255 18.775L0.876631 19.5022L0.778423 19.6128L0.877636 19.7225C1.44379 20.3484 2.29387 20.8125 3.40985 21.126L3.41065 21.1263C4.54426 21.4387 5.68935 21.595 6.84554 21.595C9.18861 21.595 11.0052 21.1403 12.2722 20.2075C13.5415 19.2729 14.1802 18.0115 14.1802 16.4383C14.1802 15.1006 13.7579 14.009 12.9037 13.1801C12.0654 12.3449 11.0407 11.7479 9.8333 11.3881C8.66928 11.013 7.4945 10.66 6.30896 10.329C5.16316 10.0032 4.19245 9.53782 3.39348 8.93547C2.61696 8.32841 2.23076 7.52861 2.23076 6.5209C2.23076 5.18997 2.63805 4.2184 3.42943 3.57451C4.22733 2.92532 5.44265 2.58673 7.10391 2.58673C9.32205 2.58673 10.9066 3.10028 11.8961 4.09199L12.0199 4.21606L12.1362 4.08501L12.7822 3.35774ZM20.4292 19.8435H20.2642V20.0085V21.0002V21.1652H20.4292H32.411H32.6578L32.5634 20.9371L24.4895 1.433L24.337 1.06472L24.1846 1.433L16.1106 20.9371L16.0162 21.1652H16.2631H17.2965H17.4067L17.4489 21.0635L24.3369 4.47212L30.7106 19.8435H20.4292ZM47.0473 20.0085V19.8435H46.8823H37.2293V1.82669V1.66169H37.0643H36.0955H35.9305V1.82669V21.0002V21.1652H36.0955H46.8823H47.0473V21.0002V20.0085ZM62.8793 1.82669V1.66169H62.7143H48.1812H48.0162V1.82669V2.81842V2.98342H48.1812H54.7983V21.0002V21.1652H54.9633H55.9322H56.0972V21.0002V2.98342H62.7143H62.8793V2.81842V1.82669Z"
      fill="#161616"
      stroke="#161616"
      strokeWidth="0.33"
    />
  </svg>

