<svg width="838" height="835" viewBox="0 0 838 835" fill="none" xmlns="http://www.w3.org/2000/svg">
<rect width="838" height="834.45" rx="60.6025" fill="#EE8245"/>
<path d="M158.499 270.113L418.678 121.205L483.887 157.647L289.321 269.252L320.81 286.827L516.349 175.844L679.501 269.252L418.324 418.289L353.66 381.182L547.999 269.252L516.349 250.768L320.81 362.562L158.499 270.113Z" fill="#FEF7ED"/>
<path d="M158.499 340.306V270.38L321.659 358.953V433.541L158.499 340.306Z" fill="#FFE4BF"/>
<path d="M419.556 412.563L354.291 379.931V452.188L417.225 487.151L419.556 412.563Z" fill="#FFE4BF"/>
<path d="M419.556 601.363V526.776L158.499 377.6V452.188L419.556 601.363Z" fill="#FFE4BF"/>
<path d="M256.395 545.422L419.556 640.988V710.914L256.395 617.679V545.422Z" fill="#FFE4BF"/>
<path d="M158.499 489.482L223.763 526.776V601.363L158.499 564.069V489.482Z" fill="#FFE4BF"/>
<path d="M678.282 340.306V265.719L417.225 412.563V487.151L678.282 340.306Z" fill="#FEEACE"/>
<path d="M480.158 487.151L417.225 526.776V601.363L480.158 564.069V487.151Z" fill="#FEEACE"/>
<path d="M512.79 545.422V470.835L675.951 377.6V452.188L512.79 545.422Z" fill="#FEEACE"/>
<path d="M675.951 487.151L417.225 638.657V713.245L675.951 564.069V487.151Z" fill="#FEEACE"/>
</svg>
